/* XPM */
static char *dpkg_www[] = {
"32 32 2 1",
"  c None",
"# c #ff0000",
"                                ",
"                #               ",
"             #########          ",
"           ##############       ",
"          ######     ######     ",
"         #####         ####     ",
"        ####            ####    ",
"       ####              ####   ",
"       ##                 ###   ",
"      ##                  ##    ",
"      ##         ## #      ##   ",
"     ###        #          ##   ",
"     ##        #           ##   ",
"     ##        #           ##   ",
"     ##       #            ##   ",
"     #        #            #    ",
"     ##        #          ##    ",
"     #         #          #     ",
"     ##        ##        ##     ",
"      #          #     ##       ",
"     ##          #######        ",
"      ##                        ",
"      ###                       ",
"       ##                       ",
"       ##                       ",
"        ##                      ",
"        ###                     ",
"         ##                     ",
"          ##                    ",
"           ###                  ",
"             ##                 ",
"               #                "
};
